<svg width="24" height="24" viewBox="0 0 24 24" fill="none" xmlns="http://www.w3.org/2000/svg">
  <path d="M4 7.5C4 6.67157 4.67157 6 5.5 6H18.5C19.3284 6 20 6.67157 20 7.5C20 8.32843 19.3284 9 18.5 9H5.5C4.67157 9 4 8.32843 4 7.5Z" fill="#0284C7"/>
  <path d="M4 16.5C4 15.6716 4.67157 15 5.5 15H11.5C12.3284 15 13 15.6716 13 16.5C13 17.3284 12.3284 18 11.5 18H5.5C4.67157 18 4 17.3284 4 16.5Z" fill="#0284C7"/>
  <path d="M17.5 13L20 16L17.5 19" stroke="#0284C7" stroke-width="1.8" stroke-linecap="round" stroke-linejoin="round"/>
</svg>
