<svg width="24" height="24" viewBox="0 0 24 24" fill="none" xmlns="http://www.w3.org/2000/svg">
  <path d="M5 10.25C5 9.55964 5.55964 9 6.25 9H8.4L12.02 6.11C12.8424 5.45301 14 6.03855 14 7.09V16.91C14 17.9614 12.8424 18.547 12.02 17.89L8.4 15H6.25C5.55964 15 5 14.4404 5 13.75V10.25Z" fill="#0284C7"/>
  <path d="M16.75 9.25C17.9544 10.1479 18.75 11.5845 18.75 13.2071C18.75 14.8298 17.9544 16.2664 16.75 17.1643" stroke="#0284C7" stroke-width="1.8" stroke-linecap="round"/>
  <path d="M18.9 6.75C20.7974 8.20277 22 10.4931 22 13.0643C22 15.6355 20.7974 17.9258 18.9 19.3786" stroke="#0284C7" stroke-width="1.8" stroke-linecap="round" opacity="0.8"/>
</svg>
